<?xml version="1.0" encoding="UTF-8"?><svg id="Layer_1" xmlns="http://www.w3.org/2000/svg" width="250" height="250" viewBox="0 0 250 250"><path d="M224.92,46.88c0-5.42.05-10.83-.04-16.25-.08-4.96-.71-5.63-4.82-5.63-46.62,0-93.24,0-139.86,0-.58,0-1.17.02-1.75,0-1.93-.03-2.94,1.24-3.19,3.34-.16,1.36-.11,2.75-.11,4.13,0,24.92-.02,49.83.06,74.75,0,2.58-.74,3.83-2.77,4.77-14.25,6.6-28.45,13.34-42.66,20.04-4.16,1.96-4.77,3.03-4.77,8.39,0,25.7,0,51.41.02,77.11,0,7.04.21,7.31,6.17,7.31,27.07,0,54.14,0,81.21,0v.06c23.06,0,46.12,0,69.18,0,4.6,0,9.2.26,13.78-.09,2.11-.16,4.55-.94,6.16-2.45,6.67-6.24,13-12.96,19.61-19.3,2.78-2.66,3.88-5.77,3.88-9.94-.08-48.75-.07-97.49-.08-146.24ZM75.21,142.63c.04,16.24.08,32.47.09,48.71,0,3.97-.53,4.61-4.07,5.16v-56.01h3.8c.06.64.18,1.38.18,2.13ZM74.93,118.47v14.54h-29.61c-.03-.13-.05-.25-.08-.38,9.82-4.68,19.64-9.37,29.7-14.17ZM64.82,217.51h-19.54c-.05-.13-.11-.26-.16-.39,6.43-3.04,12.86-6.08,19.7-9.31v9.71ZM62.11,201.42c-9.69,4.47-19.32,9.13-28.97,13.71-.45.21-.92.34-1.53.56v-75.31h33.49c0,1.48,0,2.83,0,4.18,0,17.22-.06,34.43.04,51.65.02,2.84-.83,4.2-3.02,5.21ZM108.9,217.29h-37.77c0-3.76-.08-7.38.06-11,.03-.74.76-1.83,1.37-2.09,2.74-1.15,5.52-2.82,8.33-2.93,9.25-.37,18.53-.14,28-.14v16.15ZM81.67,193.87v-53.45h27.21v53.45h-27.21ZM83.98,133.36c-2.01.02-2.8-.7-2.8-3.19.07-31.8.07-63.61.1-95.41,0-.77.12-1.54.19-2.52h65.21v101.13c-2.65.12-5.33.32-8.02.35-6.39.05-12.78.04-19.17,0-1.57-.01-3.13-.42-4.7-.43-10.27-.02-20.55-.03-30.82.07ZM146.64,140.45v53.49h-31.11v-53.49h31.11ZM153.01,217.33h-37.52v-16.09h37.52v16.09ZM194.67,217.19h-35.07v-15.92h35.07v15.92ZM159.57,193.9v-53.39h35v53.39h-35ZM201.23,213.31v-12.04h11.99c-4.16,4.18-7.92,7.95-11.99,12.04ZM218.41,193.75h-17.33c-.03-.87-.1-1.81-.1-2.74,0-16.53.02-33.06-.04-49.58,0-2.17.58-3.63,2.02-5.02,5.09-4.91,10.07-9.98,15.46-15.35v72.7ZM216.06,114.11c-5.84,5.56-11.49,11.4-17.3,17.01-1.03.99-2.47,1.94-3.73,1.96-13.44.17-26.88.15-40.33.17-.4,0-.8-.11-1.35-.19V32.27h65.32c0,1.19,0,2.25,0,3.3.01,23.92,0,47.83.09,71.75.01,2.93-.75,4.93-2.7,6.79Z" style="fill:#003820; stroke-width:0px;"/><path d="M226.12,46.88c0-4.35.03-8.7,0-13.05-.01-1.77.03-3.57-.14-5.34-.1-1.01-.25-2.08-.81-2.95-1.2-1.84-3.68-1.74-5.61-1.74-4.41,0-8.82,0-13.24,0-17.57,0-35.13,0-52.7,0-17.57,0-35.13,0-52.7,0-4.41,0-8.82,0-13.24,0-2.16,0-4.33,0-6.49,0-1.55,0-3.46-.29-4.87.5-2.88,1.59-2.38,5.69-2.38,8.43,0,4.4,0,8.8,0,13.2,0,17.52,0,35.05.03,52.57,0,2.24.01,4.48.02,6.73,0,1.41.33,3.39-.59,4.61s-2.94,1.75-4.28,2.37c-2.02.94-4.05,1.88-6.07,2.83-7.87,3.68-15.72,7.38-23.57,11.09-3.76,1.78-7.61,3.44-11.31,5.36-1.89.98-3.46,2.29-4,4.43-.81,3.16-.37,6.76-.37,9.98,0,4.39,0,8.79,0,13.18,0,17.49,0,34.99.01,52.48,0,3.36-.25,6.84.14,10.19.2,1.68.78,3.22,2.48,3.85,2.26.84,5.16.44,7.5.44,4.32,0,8.64,0,12.95,0,17.52,0,35.04,0,52.56,0,4.32,0,8.64,0,12.95,0l-1.2-1.2v.06c0,.65.55,1.2,1.2,1.2,18.5,0,36.99,0,55.49,0,4.64,0,9.29-.01,13.93,0,4.56.01,9.16.34,13.71-.11,1.71-.17,3.39-.6,4.91-1.42,1.75-.94,3.12-2.49,4.54-3.85,3.19-3.07,6.3-6.22,9.43-9.35,1.59-1.6,3.19-3.19,4.79-4.77,1.42-1.4,2.97-2.71,4.19-4.29,2.06-2.66,2.78-5.87,2.8-9.19.07-9.32-.03-18.63-.04-27.95-.02-18.55-.03-37.1-.03-55.65s0-37.1-.01-55.65c0-2.33,0-4.66,0-6.99,0-1.54-2.4-1.55-2.4,0,0,18.22,0,36.44.01,54.65,0,18.13.01,36.27.03,54.4,0,9.07.02,18.13.03,27.2,0,2.33,0,4.66.01,6.99,0,1.95.13,3.95-.21,5.88-.27,1.54-.81,2.99-1.67,4.29-1.08,1.63-2.67,2.91-4.06,4.27-3.11,3.05-6.16,6.14-9.24,9.22-1.59,1.59-3.19,3.18-4.81,4.74-1.42,1.37-2.82,3.04-4.57,3.98s-3.5,1.1-5.35,1.2c-2.29.12-4.59.1-6.89.07-4.46-.07-8.92-.07-13.38-.07-18.17,0-36.33,0-54.5,0-2.24,0-4.48,0-6.72,0l1.2,1.2v-.06c0-.65-.55-1.2-1.2-1.2-16.94,0-33.88,0-50.82,0-8.47,0-16.94,0-25.41,0-1.96,0-3.93.01-5.89,0-.88,0-1.82.02-2.68-.19-1.29-.32-1.28-1.64-1.34-3.02-.16-3.69-.04-7.41-.04-11.11,0-4.23,0-8.46,0-12.69,0-8.46,0-16.91,0-25.37s0-16.91,0-25.37c0-2.07-.03-4.15,0-6.23.02-1.14.02-2.35.37-3.44.69-2.12,3.33-2.93,5.14-3.79,7.63-3.6,15.26-7.21,22.89-10.8,3.82-1.8,7.63-3.59,11.46-5.37,1.95-.91,3.9-1.82,5.85-2.72,1.27-.59,2.55-1.14,3.41-2.29.79-1.06,1.03-2.36,1.07-3.66.07-2.03,0-4.08-.01-6.11-.01-4.24-.02-8.47-.03-12.71-.01-8.47-.02-16.94-.02-25.41s0-16.94,0-25.41c0-2.13,0-4.27,0-6.4,0-1.42-.28-3.53.66-4.74.86-1.11,3.24-.62,4.45-.62,2.08,0,4.16,0,6.24,0,16.98,0,33.97,0,50.95,0,16.98,0,33.97,0,50.95,0,8.49,0,16.98,0,25.47,0,1.96,0,3.93-.06,5.88.01.64.02,1.58,0,2.08.47.56.54.56,1.69.6,2.39.12,1.82.09,3.66.1,5.49.02,4.1,0,8.21,0,12.31,0,1.54,2.4,1.55,2.4,0Z" style="fill:#003820; stroke-width:0px;"/><path d="M74.01,142.63c.03,10.36.05,20.71.07,31.07,0,5.14.02,10.27.02,15.41,0,1.47.37,3.63-.26,5.04-.45,1-2,1.06-2.93,1.21l1.52,1.16v-56.01l-1.2,1.2h3.8l-1.2-1.2c.07.71.16,1.42.18,2.13.05,1.54,2.45,1.55,2.4,0-.02-.72-.11-1.42-.18-2.13-.07-.65-.5-1.2-1.2-1.2h-3.8c-.65,0-1.2.55-1.2,1.2v56.01c0,.85.76,1.28,1.52,1.16,2.1-.34,4.15-.96,4.71-3.26.34-1.39.25-2.88.25-4.3,0-2.15,0-4.31,0-6.46-.01-8.7-.03-17.4-.05-26.1-.01-4.97-.02-9.94-.04-14.91,0-1.54-2.4-1.55-2.4,0Z" style="fill:#003820; stroke-width:0px;"/><path d="M73.73,118.47v14.54l1.2-1.2h-29.61l1.16.88-.08-.38-.55,1.36c9.9-4.72,19.8-9.44,29.7-14.17,1.39-.66.18-2.73-1.21-2.07-9.9,4.72-19.8,9.44-29.7,14.17-.49.24-.66.87-.55,1.36l.08.38c.11.51.65.88,1.16.88h29.61c.65,0,1.2-.55,1.2-1.2v-14.54c0-1.54-2.4-1.55-2.4,0Z" style="fill:#003820; stroke-width:0px;"/><path d="M64.82,216.31h-19.54l1.16.88-.16-.39-.55,1.36c6.57-3.1,13.14-6.21,19.7-9.31l-1.81-1.04v9.71c0,1.54,2.4,1.55,2.4,0v-9.71c0-.97-1-1.41-1.81-1.04-6.57,3.1-13.14,6.21-19.7,9.31-.43.2-.74.9-.55,1.36l.16.39c.21.5.58.88,1.16.88h19.54c1.54,0,1.55-2.4,0-2.4Z" style="fill:#003820; stroke-width:0px;"/><path d="M61.5,200.39c-5.07,2.34-10.12,4.73-15.17,7.13-2.45,1.17-4.9,2.34-7.35,3.5s-5.05,2.59-7.7,3.52l1.52,1.16v-75.31l-1.2,1.2h33.49l-1.2-1.2c0,16.79-.06,33.58.01,50.36,0,2.15.22,4.41-.01,6.55-.17,1.58-1,2.42-2.39,3.09s-.18,2.74,1.21,2.07c2.84-1.37,3.62-3.73,3.61-6.74-.02-4.47-.04-8.94-.05-13.41-.02-8.94,0-17.88,0-26.82,0-5.03,0-10.07,0-15.1,0-.65-.55-1.2-1.2-1.2H31.61c-.65,0-1.2.55-1.2,1.2v75.31c0,.74.77,1.42,1.52,1.16,2.55-.89,4.95-2.17,7.39-3.33,2.6-1.24,5.19-2.48,7.79-3.72,5.19-2.47,10.39-4.93,15.61-7.34,1.4-.65.18-2.72-1.21-2.07Z" style="fill:#003820; stroke-width:0px;"/><path d="M108.9,216.09h-37.77l1.2,1.2c0-2.09-.03-4.18-.02-6.27,0-.95,0-1.9.03-2.84.02-.87-.16-1.96.48-2.65.54-.59,1.68-.88,2.41-1.22.87-.4,1.73-.8,2.63-1.13,1.96-.71,3.9-.74,5.96-.8,8.36-.22,16.72-.04,25.08-.04l-1.2-1.2v16.15c0,1.54,2.4,1.55,2.4,0v-16.15c0-.65-.55-1.2-1.2-1.2-9.3,0-18.71-.48-28,.14-1.99.13-3.82.79-5.63,1.59-1.59.7-3.65,1.26-4.64,2.79s-.7,3.82-.71,5.61c-.02,2.41.01,4.81.02,7.22,0,.65.55,1.2,1.2,1.2h37.77c1.54,0,1.55-2.4,0-2.4Z" style="fill:#003820; stroke-width:0px;"/><path d="M82.87,193.87v-53.45l-1.2,1.2h27.21l-1.2-1.2v53.45l1.2-1.2h-27.21c-1.54,0-1.55,2.4,0,2.4h27.21c.65,0,1.2-.55,1.2-1.2v-53.45c0-.65-.55-1.2-1.2-1.2h-27.21c-.65,0-1.2.55-1.2,1.2v53.45c0,1.54,2.4,1.55,2.4,0Z" style="fill:#003820; stroke-width:0px;"/><path d="M83.98,132.16c-.73,0-1.27-.01-1.49-.76-.42-1.42-.1-3.26-.1-4.73,0-3.33.01-6.66.02-9.99.01-6.91.02-13.82.03-20.73.01-13.65.02-27.31.03-40.96,0-3.83,0-7.66,0-11.49s-.13-7.52.2-11.26l-1.2,1.2h65.21l-1.2-1.2c0,26.25,0,52.51,0,78.76v22.37l1.2-1.2c-5.14.24-10.25.37-15.39.38-2.62,0-5.24,0-7.86-.02-1.31,0-2.62.01-3.93-.03s-2.5-.28-3.76-.38c-2.61-.21-5.28-.05-7.9-.06s-5.3,0-7.95,0c-5.3,0-10.61.03-15.91.08-1.54.01-1.55,2.41,0,2.4,5.3-.05,10.61-.08,15.91-.08,2.65,0,5.3,0,7.95,0s5.29-.15,7.9.06c1.26.1,2.49.34,3.76.38s2.62.02,3.93.03c2.62.01,5.24.02,7.86.02,5.14,0,10.25-.14,15.39-.38.65-.03,1.2-.53,1.2-1.2,0-26.34,0-52.69,0-79.03v-22.11c0-.65-.55-1.2-1.2-1.2h-65.21c-.69,0-1.14.55-1.2,1.2-.31,3.49-.2,7-.2,10.51s0,7.33,0,10.99c0,7.16,0,14.32-.01,21.48-.01,14.49-.02,28.97-.05,43.46,0,3.94-.17,7.91-.02,11.85.1,2.55,1.41,4,3.99,4.03,1.54.01,1.55-2.39,0-2.4Z" style="fill:#003820; stroke-width:0px;"/><path d="M145.44,140.45v53.49l1.2-1.2h-31.11l1.2,1.2v-53.49l-1.2,1.2h31.11c1.54,0,1.55-2.4,0-2.4h-31.11c-.65,0-1.2.55-1.2,1.2v53.49c0,.65.55,1.2,1.2,1.2h31.11c.65,0,1.2-.55,1.2-1.2v-53.49c0-1.54-2.4-1.55-2.4,0Z" style="fill:#003820; stroke-width:0px;"/><path d="M153.01,216.13h-37.52l1.2,1.2v-16.09l-1.2,1.2h37.52l-1.2-1.2v16.09c0,1.54,2.4,1.55,2.4,0v-16.09c0-.65-.55-1.2-1.2-1.2h-37.52c-.65,0-1.2.55-1.2,1.2v16.09c0,.65.55,1.2,1.2,1.2h37.52c1.54,0,1.55-2.4,0-2.4Z" style="fill:#003820; stroke-width:0px;"/><path d="M194.67,215.99h-35.07l1.2,1.2v-15.92l-1.2,1.2h35.07l-1.2-1.2v15.92c0,1.54,2.4,1.55,2.4,0v-15.92c0-.65-.55-1.2-1.2-1.2h-35.07c-.65,0-1.2.55-1.2,1.2v15.92c0,.65.55,1.2,1.2,1.2h35.07c1.54,0,1.55-2.4,0-2.4Z" style="fill:#003820; stroke-width:0px;"/><path d="M160.77,193.9v-53.39l-1.2,1.2h35l-1.2-1.2v53.39l1.2-1.2h-35c-1.54,0-1.55,2.4,0,2.4h35c.65,0,1.2-.55,1.2-1.2v-53.39c0-.65-.55-1.2-1.2-1.2h-35c-.65,0-1.2.55-1.2,1.2v53.39c0,1.54,2.4,1.55,2.4,0Z" style="fill:#003820; stroke-width:0px;"/><path d="M202.43,213.31v-12.04l-1.2,1.2h11.99l-.85-2.05c-4,4.01-7.99,8.03-11.99,12.04-1.09,1.1.61,2.79,1.7,1.7,4-4.01,7.99-8.03,11.99-12.04.73-.74.19-2.05-.85-2.05h-11.99c-.65,0-1.2.55-1.2,1.2v12.04c0,1.54,2.4,1.55,2.4,0Z" style="fill:#003820; stroke-width:0px;"/><path d="M218.41,192.55h-17.33l1.2,1.2c-.23-5.2-.11-10.42-.1-15.63s0-10.74,0-16.12,0-10.58-.02-15.87c0-1.24,0-2.48-.01-3.72,0-1.12-.06-2.26.37-3.33.78-1.96,2.97-3.45,4.44-4.89,4.14-4.07,8.21-8.2,12.31-12.29l-2.05-.85v72.7c0,1.54,2.4,1.55,2.4,0v-72.7c0-1.04-1.31-1.58-2.05-.85-3.78,3.77-7.53,7.57-11.32,11.32-1.67,1.65-3.63,3.2-5.04,5.07-1.31,1.74-1.47,3.72-1.46,5.82.04,10.91.04,21.82.03,32.73,0,6.19-.17,12.42.1,18.61.03.65.53,1.2,1.2,1.2h17.33c1.54,0,1.55-2.4,0-2.4Z" style="fill:#003820; stroke-width:0px;"/><path d="M215.21,113.26c-3.22,3.07-6.37,6.21-9.52,9.34-1.61,1.6-3.21,3.2-4.83,4.79-1.46,1.43-2.97,3.4-4.88,4.22-.92.4-1.96.27-2.95.28-1.16.01-2.32.03-3.48.04-2.32.02-4.65.04-6.97.05-4.56.03-9.13.04-13.69.05-2.57,0-5.14,0-7.72,0s-5.08.26-7.5-.14l.88,1.16V32.27l-1.2,1.2h65.32l-1.2-1.2c0,21.86,0,43.72.06,65.58,0,3.15.06,6.31.03,9.47-.02,2.36-.65,4.27-2.35,5.94-1.1,1.08.59,2.78,1.7,1.7,1.39-1.37,2.42-3.01,2.8-4.95.48-2.41.24-4.98.23-7.42-.02-5.73-.03-11.46-.04-17.19-.02-11.46-.02-22.92-.02-34.38,0-6.25,0-12.5,0-18.75,0-.65-.55-1.2-1.2-1.2h-65.32c-.65,0-1.2.55-1.2,1.2v100.79c0,.48.37,1.07.88,1.16,2.12.35,4.26.23,6.4.23,2.41,0,4.81,0,7.22,0,4.9,0,9.79-.02,14.69-.04,2.41-.01,4.81-.03,7.22-.05,2.28-.02,4.72.19,6.98-.12,1.93-.26,3.43-1.63,4.77-2.93,1.74-1.69,3.47-3.4,5.19-5.11,3.79-3.76,7.55-7.55,11.41-11.23,1.12-1.07-.58-2.76-1.7-1.7Z" style="fill:#003820; stroke-width:0px;"/><path d="M140.37,126.61c2.2-1.41,3.22-3.35,3.05-6.25-.15-2.52-.14-5.08,0-7.6.16-2.96-1.03-4.73-3.11-5.93-4.39,4.01-4.39,15.71.06,19.78Z" style="fill:#003820; stroke-width:0px;"/><path d="M140.97,127.65c1.55-1.03,2.78-2.4,3.33-4.21.66-2.19.2-4.63.2-6.88s.46-4.61-.22-6.74c-.56-1.77-1.8-3.08-3.37-4.03-.47-.28-1.07-.18-1.45.19-2.82,2.65-3.64,7.01-3.64,10.72,0,3.74.87,8.09,3.7,10.77,1.12,1.06,2.82-.63,1.7-1.7-2.37-2.24-2.99-5.96-2.99-9.07s.58-6.8,2.93-9.02l-1.45.19c1.16.7,2.04,1.61,2.37,2.96.45,1.81.03,3.89.03,5.74s.36,3.81.03,5.61c-.27,1.48-1.15,2.58-2.38,3.4s-.08,2.93,1.21,2.07Z" style="fill:#003820; stroke-width:0px;"/><path d="M157.36,107.04c-1.84.11-2.31,2.04-2.35,3.92-.07,2.9.06,5.81-.08,8.7-.14,2.99.71,5.27,3.43,7.25.85-1.49,2.23-2.84,2.35-4.32.32-3.98.22-8.03.03-12.03-.1-2.23-1.55-3.63-3.37-3.52Z" style="fill:#003820; stroke-width:0px;"/><path d="M157.36,105.84c-1.96.21-3.06,1.59-3.39,3.48-.43,2.46-.16,5.09-.17,7.58-.01,2.12-.32,4.33.35,6.38s1.97,3.45,3.61,4.67c.52.39,1.34.08,1.64-.43,1.06-1.78,2.37-3.16,2.54-5.31.2-2.51.2-5.05.15-7.57-.05-2.06.21-4.53-.73-6.43-.76-1.53-2.3-2.41-3.99-2.38-1.54.03-1.55,2.43,0,2.4,1.24-.03,1.97.84,2.15,2.02.29,1.91.18,4,.19,5.93s-.02,3.88-.16,5.82c-.12,1.69-1.39,2.9-2.22,4.3l1.64-.43c-1.15-.86-2.12-1.97-2.54-3.36-.48-1.57-.26-3.22-.23-4.83.03-2.11-.03-4.22.01-6.33.02-.85-.06-2.99,1.16-3.12,1.52-.16,1.54-2.57,0-2.4Z" style="fill:#003820; stroke-width:0px;"/></svg>