<?xml version="1.0" encoding="UTF-8"?><svg id="Layer_1" xmlns="http://www.w3.org/2000/svg" width="260" height="130" viewBox="0 0 260 130"><path d="M254.88,95.87c-1.35-.78-3.13-1.1-4.72-1.12-8.98-.1-17.97-.13-26.96,0-2.1.03-2.82-.68-3.3-2.63-3.23-13.24-6.6-26.44-9.91-39.67-2.57-10.29-5.11-20.59-7.7-31.03.85-.33,1.59-.76,2.37-.9,9.14-1.67,18.25-3.58,27.45-4.82,6.32-.85,12.78-.78,19.17-1.08,2.78-.13,4.82-1.41,5.84-3.93.97-2.41.37-4.83-1.69-6.26-1.45-1.01-3.54-1.7-5.28-1.6-10.62.65-21.25,1.31-31.81,2.49-8.58.96-17.13,2.44-24.98,6.44-3.15,1.6-4.45,4.08-3.87,7.56.09.54.2,1.07.37,1.91-1.71-.15-3.18-.41-4.65-.39-2.64.03-5.38-.22-7.89.41-19.1,4.8-38.16,9.72-57.21,14.72-9.56,2.51-19.21,4.82-28.54,8.03-9.51,3.28-16.69,9.33-18.07,20.07-8.24-2.13-16.21-4.53-24.33-6.22-10.18-2.12-20.41-2.84-30.45,1.15-7.67,3.04-13.69,7.68-15.68,16.07-1.31,5.52-.92,8.41,5.02,10.96,16.35,7.01,32.54,14.41,48.95,21.27,15.18,6.35,30.52,12.31,45.89,18.18,3.1,1.18,6.82,2.11,9.97,1.54,13.72-2.48,27.52-4.89,40.95-8.58,17.94-4.93,35.57-11.01,53.33-16.59.84-.26,1.7-.49,2.62-.75,1.11,3.1,2.82,5.39,6.25,5.4,11.9.04,23.79.04,35.69-.02,2.54-.01,4.86-1.98,5.55-4.31.68-2.3-.13-4.99-2.4-6.29ZM199.63,91.75c-20.2,6.12-40.33,12.47-60.64,18.19-8.6,2.42-17.56,3.64-26.41,5.09-1.99.33-4.31-.33-6.28-1.07-12.82-4.86-25.68-9.61-38.33-14.89-16.72-6.97-33.25-14.39-49.86-21.62-.76-.33-1.5-.69-3.26-1.49,1.86-1.65,3.17-3.24,4.84-4.22,6.97-4.09,14.54-4.2,22.27-3.02,14.65,2.23,28.54,7.21,42.29,12.39,10.35,3.9,20.24,4.67,31.04,1.96,14.58-3.65,29.46-6.07,44.2-9.08,1.36-.28,2.78-.71,3.92-1.45,2.31-1.51,3.09-4.5,2.07-6.83-1.2-2.74-4.08-4.17-7.22-3.55-7.58,1.5-15.16,3.01-22.73,4.53-11.08,2.22-22.15,4.45-33.24,6.64-.79.16-1.69.21-2.44-.02-4.36-1.35-8.71-2.76-13.03-4.25-.55-.19-1.22-.91-1.29-1.45-.43-3.42.42-6.32,3.31-8.59,4.16-3.29,8.99-5.04,13.98-6.34,25.57-6.66,51.16-13.26,76.76-19.78,4.35-1.11,8.66-.27,12.55,1.84,1.02.56,1.76,2.16,2.08,3.42,3.95,15.61,7.81,31.24,11.69,46.87.34,1.36.68,2.72,1.07,4.28-2.5.84-4.9,1.71-7.34,2.45Z" style="fill:#003820; stroke-width:0px;"/><path d="M223.19,23.74c-2.47.73-4.73,3.57-4.23,6.07.94,4.71,2.08,9.4,3.5,13.98.85,2.72,4.02,4.1,6.68,3.51,2.67-.59,4.65-3.18,4.59-7.26-1.04-3.7-2.21-8.63-3.85-13.38-.9-2.61-4.07-3.69-6.69-2.92Z" style="fill:#003820; stroke-width:0px;"/></svg>