<?xml version="1.0" encoding="UTF-8"?><svg id="Layer_1" xmlns="http://www.w3.org/2000/svg" width="250" height="250" viewBox="0 0 250 250"><path d="M86.63,196.11c-.11-.05-.22-.18-.32-.14.09-.04.21.09.32.15,2.71,7.53,5.45,11.11,9.14,11.32-3.69-.21-6.43-3.79-9.14-11.33Z" style="fill:#003820; stroke-width:0px;"/><path d="M224.32,131.79c-4.57-19.85-9.14-39.7-13.71-59.55-3.25-14.08-6.5-28.16-9.76-42.23-.98-4.24-2.47-5.87-4.6-4.57-8.72,5.3-17.42,10.69-26.1,16.17-2.28,1.44-2.89,4.34-2.02,8.38.45,2.09.94,4.16,1.51,6.66-3.56,2.03-6.96,4.01-10.38,5.84-.5.27-1.17-.03-1.69-.38-7.01-4.76-14.04-9.5-21.01-14.44-2.8-1.98-5.69-3.55-8.59-2.08-3.24,1.64-6.36,4.12-9.43,6.6-1.22.98-2.03,1.55-3.28.02-2.76-3.33-5.91-4.08-9.12-2.33-1.84,1.01-3.63,2.43-5.31,4.07-4.15,4.06-8.22,8.39-12.36,12.5-.53.53-1.39.94-1.88.56-1.54-1.2-2.96-2.79-4.5-4.3.78-2.84,1.52-5.36,2.17-7.96.95-3.8.45-6.58-1.66-8.45-7.75-6.88-15.52-13.71-23.31-20.49-1.85-1.61-3.48-.73-4.55,2.32-.67,1.91-1.19,3.98-1.77,5.97-9.08,30.95-18.15,61.91-27.22,92.87-1.32,4.52-.94,7.37,1.42,9.49,8.1,7.27,16.22,14.47,24.36,21.61,2.1,1.84,3.72.78,4.84-2.86.62-2.01,1.2-4.06,1.84-6.25,1.09,1.3,1.99,2.38,2.84,3.4-2.35,11.37-1.43,18.21,3.56,25.46,1.66,2.4,3.53,4.43,5.43,6.22,1.11,1.05,1.79,2.28,2.29,4.27,2.21,8.93,6.99,13.04,12.26,10.75.1-.04.22.09.33.15,2.83,7.86,5.69,11.6,9.55,11.83.26.01.52.01.78,0,1.46-.09,2.12.82,2.96,2.66,4.21,9.26,9.1,11.63,14.79,4.06,1.37-1.83,2.55-4.09,3.86-6.22,2.57,3.4,5.03,7.09,7.73,10.15,6.3,7.12,15.77,2.11,18.71-9.79.46-1.87,1.12-2.26,2.12-2.45,4.6-.89,8.3-4.5,10.77-11.34.67-1.85,1.37-2.21,2.54-2.23,6.27-.09,10.93-5.04,13.86-14.59.57-1.87,1.16-2.53,2.37-2.65,6.24-.63,10.82-7.74,11.45-18.05.18-3.02-.33-6.17-.55-9.64.61-.47,1.45-1.14,2.31-1.77.84-.62,1.69-1.21,2.62-1.88.59,2.49,1.08,4.66,1.61,6.8,1.15,4.67,2.59,5.77,5.3,3.98,7.98-5.26,15.95-10.54,23.92-15.81,3.47-2.3,4.05-4.57,2.68-10.5ZM51.78,145.59c-6.44-5.73-12.74-11.34-19.13-17.01,8.84-30.14,17.6-60.03,26.44-90.2,5.93,5.2,11.6,10.17,17.26,15.14.21.18.39.45.73.85-8.41,30.3-16.81,60.58-25.31,91.22ZM75.29,154.36c-1.04,6.1-2.11,12.19-3.26,18.81-1.07-1.29-1.92-2.18-2.69-3.24-3.27-4.48-3.67-7.35-1.84-13.71.55-1.9,1.25-3.67,1.88-5.49.93-2.67,2.34-3.23,3.96-2.49,2.03.94,2.55,2.6,1.94,6.13ZM84.33,185.77c-1.02,2.84-2.9,3.6-4.09,2.14-1.98-2.42-2.59-6-1.45-8.97,2.14-5.6,4.32-11.15,6.5-16.71,1.01-2.57,2.33-4.27,3.81-4.32,2.95.09,3.92,2.53,2.66,6.4-2.36,7.26-4.87,14.39-7.42,21.45ZM97.05,197.68c-.42,1.08-1.21,1.73-1.45,2.06-3.83-.29-5.93-7.08-4.28-11.68,1.8-5.01,3.57-10.05,5.3-15.14,1.13-3.31,2.62-4.08,4.75-2.22,2.08,1.81,2.93,5.05,1.99,8.28-.98,3.35-2.16,6.53-3.25,9.78-1.01,2.99-1.95,6.05-3.06,8.92ZM107.14,210.61c-1.45.75-2.25-1.09-3.14-2.58-1.22-2.06-1.45-3.92-.19-6.41,1.54-3.05,2.83-6.49,4.2-9.79.69-1.65,1.24-3.52,2.77-2.62,1.44.84,2.54,2.13,2.78,4.91.04.5.05,1.01.06,1.24-.01,5.37-3.62,13.76-6.48,15.24ZM176.58,166.52c-2.67,1.77-5.19,1.35-7.38-2.23-5.13-8.41-10.28-16.8-15.42-25.2-.47-.77-.92-1.6-1.44-2.25-1.35-1.68-3.08-1.45-4.2.46-1.13,1.91-1.36,5-.36,7.23.83,1.83,1.86,3.4,2.83,5.01,5.33,8.79,10.66,17.55,16.12,26.53-1.69,5.98-5.57,9.82-8.84,8.27-1.14-.54-2.29-1.72-3.15-3.12-4.54-7.42-8.99-15.01-13.46-22.55-.34-.57-.66-1.18-1-1.72-1.63-2.57-3.55-2.7-4.89-.35-1.31,2.3-1.23,5.7.29,8.44,1.67,3.01,3.41,5.93,5.14,8.85,3.37,5.67,6.76,11.31,10.11,16.92-2.41,8.23-7.97,9.91-11.59,3.66-3.29-5.69-6.58-11.39-9.79-16.95-1.56,2.75-3.06,5.39-4.43,7.81,3.94,6.96,8.1,14.3,12.24,21.63-1.51,6.46-6.37,8.81-9.79,4.57-2.39-2.97-4.71-6.16-6.9-9.55-.51-.79-.6-2.86-.51-4.26.58-8.81-2.18-16.47-7.06-19.14-.83-.46-1.71-.67-2.64-1.02-.15-1.81-.21-3.63-.46-5.38-1.02-7.3-5.09-13.1-9.62-13.55-1.14-.11-1.68-.59-2.12-2.64-1.74-8.18-7.94-11.8-13.19-7.87-.91.68-1.75,1.62-2.84,2.65-.69-7.29-3.26-11.71-7.28-13.56-4.01-1.84-7.44.17-10.42,5.39-1.11-1.29-2.22-2.57-3.5-4.07,6.05-21.82,12.07-43.53,18.17-65.52,1.97,1.9,3.89,3.63,5.73,5.59,1.65,1.75,3.13,1.66,4.78-.08,4.57-4.84,9.2-9.54,13.82-14.23,1.16-1.18,2.37-2.33,3.63-3.11.98-.6,2.09-.58,3.21-.47-3.25,5.04-5.98,10.53-7.34,17.55-1.4,7.2-2.87,14.44-2.1,22.32.66,6.72,2.75,11.4,6.44,13.72,3.74,2.36,7.36,2.43,10.64-2.38,2.41-3.53,4.05-7.77,5.12-12.92.36-1.75,1.6-2.95,2.42-4.44,1.18-2.15,2.19-.66,3.27.35,8.55,8.01,17.33,15.21,26.48,20.94,2.21,1.38,3.84,3.84,5.42,6.55,5.87,10.04,11.74,20.06,17.55,30.19,2.82,4.91,2.01,11.46-1.71,13.93ZM182.63,141.05c-.94.81-1.47.29-2.13-.84-6.08-10.38-12.19-20.71-18.31-31.01-.49-.83-1.1-1.63-1.74-1.99-10.67-5.89-20.48-14.99-30.29-24.05-2.56-2.36-4.65-2.9-6.91.47-.75,1.12-1.64,2.01-2.51,2.84-2.15,2.07-3.53,4.74-4.06,9.27-.32,2.78-1.77,5.41-3.04,7.55-1.4,2.38-3.11.8-4.64-.24-1.28-.87-1.73-2.86-1.63-4.97.52-11.5,2.13-22.24,8.13-29.1,3.38-3.86,6.91-7.37,10.48-10.7,2.63-2.46,5.33-2.14,8.16-.1,7.44,5.36,14.96,10.43,22.49,15.39,1.1.72,2.56.69,3.72.14,3.51-1.68,6.96-3.77,10.43-5.76.8-.46,1.35-.81,1.78,1.05,5.16,22.29,10.36,44.54,15.55,66.8.04.17.03.38.07.94-1.89,1.46-3.75,2.77-5.53,4.31ZM197.6,146.02c-7.44-31.9-14.85-63.61-22.31-95.59,6.77-4.19,13.45-8.31,20.28-12.54,7.32,31.75,14.58,63.23,21.9,94.97-6.64,4.4-13.16,8.71-19.87,13.16Z" style="fill:#003820; stroke-width:0px;"/></svg>