<?xml version="1.0" encoding="UTF-8"?><svg id="Layer_1" xmlns="http://www.w3.org/2000/svg" width="250" height="250" viewBox="0 0 250 250"><path d="M223.37,49.31c-.51-.31-1.42-.09-2.14-.09-31.48,0-62.97,0-94.45,0s-62.68,0-94.02,0c-.73,0-1.46,0-2.19,0-1.46.01-2.45.65-2.47,1.99-.02,1.43.97,2.14,2.56,2.1.44,0,.87,0,1.31,0,63.19,0,126.38,0,189.56,0,.58,0,1.33.19,1.72-.06.79-.51,1.91-1.26,1.92-1.93.01-.68-1.01-1.55-1.8-2.03Z" style="fill:none; stroke-width:0px;"/><path d="M69.47,27c-8.39,4.99-16.48,9.8-25.11,14.93h25.11v-14.93Z" style="fill:none; stroke-width:0px;"/><path d="M158.77,41.66c-27.02-5.61-54.04-11.21-81.16-16.84v17.15h81.1c.02-.1.04-.2.06-.31Z" style="fill:none; stroke-width:0px;"/><path d="M69.4,203.88v-4.64s-.02,0-.03.01v4.62h.03Z" style="fill:#003820; stroke:#fff; stroke-miterlimit:10; stroke-width:.71px;"/><path d="M69.51,176.78v-4.46s0,0,0,0v4.46h0Z" style="fill:#003820; stroke:#fff; stroke-miterlimit:10; stroke-width:.71px;"/><path d="M69.5,122.49v-4.42s0,0,0,0v4.42h0Z" style="fill:#003820; stroke:#fff; stroke-miterlimit:10; stroke-width:.71px;"/><path d="M69.47,190.28v-4.4s0,0-.01,0v4.4h.01Z" style="fill:#003820; stroke:#fff; stroke-miterlimit:10; stroke-width:.71px;"/><path d="M69.47,163.2v-4.4s0,0-.01,0v4.4h.01Z" style="fill:#003820; stroke:#fff; stroke-miterlimit:10; stroke-width:.71px;"/><path d="M69.49,109.01v-4.49s0,0,0,0v4.49h0Z" style="fill:#003820; stroke:#fff; stroke-miterlimit:10; stroke-width:.71px;"/><path d="M69.47,149.56v-4.4s0,0-.01,0v4.39h.01Z" style="fill:#003820; stroke:#fff; stroke-miterlimit:10; stroke-width:.71px;"/><path d="M69.47,136.02v-4.41s0,0-.01,0v4.4h.01Z" style="fill:#003820; stroke:#fff; stroke-miterlimit:10; stroke-width:.71px;"/><path d="M38.11,170.55v4.95s.01,0,.02,0v-4.94h-.02Z" style="fill:#003820; stroke:#fff; stroke-miterlimit:10; stroke-width:.71px;"/><path d="M69.49,68.32v-4.42s0,0,0,0v4.42h0Z" style="fill:#003820; stroke:#fff; stroke-miterlimit:10; stroke-width:.71px;"/><path d="M38.09,129.89v4.88s0,0,.01,0v-4.87h-.01Z" style="fill:#003820; stroke:#fff; stroke-miterlimit:10; stroke-width:.71px;"/><path d="M38.11,197.63v4.76s.01,0,.02,0v-4.76h-.02Z" style="fill:#003820; stroke:#fff; stroke-miterlimit:10; stroke-width:.71px;"/><path d="M38.15,94.12s.02,0,.03,0v-4.88h-.03v4.89Z" style="fill:#003820; stroke:#fff; stroke-miterlimit:10; stroke-width:.71px;"/><path d="M38.07,184.12v4.92s0,0,0,0v-4.92h0Z" style="fill:#003820; stroke:#fff; stroke-miterlimit:10; stroke-width:.71px;"/><path d="M38.07,102.71v4.98s0,0,0,0v-4.98h0Z" style="fill:#003820; stroke:#fff; stroke-miterlimit:10; stroke-width:.71px;"/><path d="M38.17,75.61v4.97s.02,0,.03-.01v-4.96h-.03Z" style="fill:#003820; stroke:#fff; stroke-miterlimit:10; stroke-width:.71px;"/><path d="M69.47,81.85v-4.41s0,0-.01,0v4.4h.01Z" style="fill:#003820; stroke:#fff; stroke-miterlimit:10; stroke-width:.71px;"/><path d="M38.07,143.49v4.92s0,0,0,0v-4.92h0Z" style="fill:#003820; stroke:#fff; stroke-miterlimit:10; stroke-width:.71px;"/><path d="M38.07,161.96s0,0,0,0v-4.92h0v4.92Z" style="fill:#003820; stroke:#fff; stroke-miterlimit:10; stroke-width:.71px;"/><path d="M38.07,60.57v6.49s0,0,0,0v-6.49h0Z" style="fill:#003820; stroke:#fff; stroke-miterlimit:10; stroke-width:.71px;"/><path d="M214.18,49.12c-7.47,0-14.94.02-22.41-.02-1.52,0-3.06-.17-4.54-.48-35.84-7.44-71.67-14.9-107.5-22.41-1.77-.37-3.17-.13-4.68.78-11.79,7.09-23.61,14.14-35.45,21.16-.91.54-2,.92-3.07,1.15-3.76.84-6.74,3.55-7.25,6.76-.6,3.7,1.05,7.08,4.52,8.81,1.3.65,2.82.93,4.28,1.4v138.93c-2.21,0-4.33-.06-6.44.01-3.44.11-6.2,2.54-6.38,5.67-.12,2.12-.07,4.25-.07,6.38,0,5.26,2.51,7.56,8.26,7.56,12.21,0,24.41,0,36.62,0,6.27,0,12.54.03,18.81-.01,4.92-.03,7.63-2.57,7.66-7.05.01-2.07.05-4.13-.01-6.2-.12-3.82-2.96-6.33-7.14-6.37-2.58-.02-5.16,0-7.81,0V66.07h91.46v32.53c1,0,1.86-.03,2.71,0,3.01.14,5.05,1.82,5.27,4.29.21,2.4-1.49,4.51-4,4.95-2.88.51-5-.76-6.07-3.53-.15-.4-.71-.93-1.1-.95-1.97-.1-3.96-.04-6.14-.04.12,1,.13,1.79.33,2.53,1.36,5.14,6.02,8.55,11.65,8.59,5.88.04,10.67-3.23,12.13-8.29,1.45-4.99-.99-10.17-6.14-12.62-1.25-.6-1.48-1.27-1.47-2.39.04-7.77.02-15.55.02-23.32,0-.58.06-1.17.09-1.85h2.35c10.54,0,21.08.03,31.62-.01,5.58-.02,9.64-3.56,9.65-8.27,0-4.99-4.04-8.55-9.74-8.55ZM81.6,33.37c24.81,5.15,49.54,10.28,74.26,15.41-.02.09-.04.19-.06.28h-74.21v-15.69ZM74.15,35.36v13.66h-22.97c7.89-4.69,15.3-9.1,22.97-13.66ZM89.23,211.88v6.23h-56.79v-6.23h56.79ZM74.17,69.12v4.05h-14.32c-.02-.09-.03-.18-.05-.28,4.7-1.23,9.4-2.47,14.36-3.77h0s0,0,0,0ZM45.45,195.85v-4.36h14.45c.06.09.12.19.18.28-4.79,1.34-9.59,2.67-14.62,4.07h0s0,0-.01,0ZM45.41,183.64v-4.51h15.12c.06.09.13.19.19.28-5.05,1.39-10.1,2.79-15.3,4.22h0s0,0,0,0ZM45.41,109.2v-4.56h15.39c.04.09.09.18.13.26-5.11,1.41-10.22,2.83-15.52,4.29h0s0,0,0,0ZM74.15,81.52v4.03h-14.24c-.03-.08-.07-.15-.1-.23,4.68-1.24,9.37-2.49,14.33-3.8h0s0,0,.01,0ZM45.54,84.39h0s-.02,0-.03,0v-4.55h15.37c.04.09.08.17.12.26-5.09,1.41-10.17,2.82-15.46,4.28ZM45.52,92.31h15.3c.05.07.09.14.14.21-5.06,1.4-10.12,2.8-15.44,4.26h0s-.02,0-.03,0v-4.47h.03ZM74.16,106.29h0s0,0,0,0v4.11h-14.31c-.04-.09-.08-.18-.13-.26,4.72-1.26,9.44-2.52,14.43-3.84ZM74.17,118.69h0s0,0,0,0v4.05h-14.31c-.01-.08-.02-.17-.03-.25,4.69-1.24,9.38-2.48,14.34-3.79ZM74.19,168.34v4.08h-14.02c-.03-.11-.06-.21-.1-.32,4.59-1.22,9.18-2.45,14.12-3.76h0s0,0,0,0ZM74.09,192.98v4.24h-14.56c-.04-.12-.08-.23-.12-.35,4.82-1.28,9.63-2.56,14.65-3.89h0s.02,0,.03,0ZM63.41,184.77h-3.17c-.05-.1-.1-.19-.15-.29,4.59-1.22,9.19-2.45,14.05-3.74h0s0,0,.01,0v4.03h-10.74ZM45.45,171.24v-4.53h15.11c.05.1.09.2.14.31-5.01,1.39-10.02,2.78-15.23,4.22h0s0,0-.01,0ZM74.15,131.09v4.03h-14.24c-.03-.08-.07-.15-.1-.23,4.68-1.24,9.36-2.49,14.33-3.8h0s0,0,.01,0ZM74.13,143.48h0s0,0,.01,0v4.03h-14.22c-.04-.07-.08-.15-.12-.22,4.68-1.24,9.36-2.49,14.33-3.81ZM74.14,155.96h0s0,0,.01,0v4.03h-13.92c-.05-.1-.1-.19-.15-.29,4.59-1.22,9.19-2.45,14.05-3.74ZM61.61,129.51c-5.73,1.58-10.84,2.99-16.16,4.46h0s0,0-.01,0v-4.46h16.18ZM57.57,141.96h2.97c.06.09.12.19.19.28-5.05,1.39-10.1,2.79-15.3,4.22h0s0,0,0,0v-4.51h12.16ZM45.42,154.35h15.12c.06.09.13.19.19.28-5.05,1.39-10.1,2.79-15.3,4.22h0s0,0,0,0v-4.51h0ZM46.74,203.8c3.06-.02,6.13,0,9.19,0,5.53,0,11.06,0,16.59,0,.86,0,2.06-.27,1.6,1.3h-28.52c-.1-1.25-.1-1.29,1.14-1.3ZM74.19,97.97h-14.33c-.04-.08-.07-.15-.11-.23,4.73-1.26,9.46-2.51,14.44-3.84v4.07ZM45.42,72.02h0s0,0,0,0v-5.94h20.5c.03.06.07.13.1.19-6.8,1.9-13.6,3.8-20.59,5.75ZM58.38,117.13h3.16c-5.63,1.56-10.73,2.97-16.15,4.47v-4.47h12.99ZM214.87,59.39c-.36.23-1.04.05-1.57.05-57.82,0-115.64,0-173.46,0-.4,0-.8,0-1.2,0-1.45.03-2.36-.61-2.34-1.92.01-1.23.92-1.81,2.26-1.82.67,0,1.33,0,2,0,28.68,0,57.35,0,86.03,0s57.62,0,86.43,0c.67,0,1.5-.2,1.96.08.72.44,1.66,1.23,1.65,1.86-.01.61-1.04,1.29-1.76,1.76Z" style="fill:#003820; stroke:#fff; stroke-miterlimit:10; stroke-width:.71px;"/></svg>