<?xml version="1.0" encoding="UTF-8"?><svg id="Layer_1" xmlns="http://www.w3.org/2000/svg" width="250" height="250" viewBox="0 0 250 250"><path d="M71.53,195.19c5.18,0,10.37,0,15.55,0,5.18,0,10.37,0,15.55,0-5.18,0-10.37,0-15.55,0-5.18,0-10.37,0-15.55,0Z" style="fill:#003820; stroke-width:0px;"/><path d="M223.3,26.71c-1.59-1.48-3.58-1.71-5.78-1.71-46.97.02-93.93.02-140.9.02-.37,0-.73,0-1.1,0-3.79.1-6.2,2.17-6.29,5.46-.05,1.75-.01,3.49-.01,5.24,0,2.66,0,5.32,0,7.88-.43.14-.57.21-.71.22-4.16.02-8.33.03-12.49.03-7.12,0-8.99,1.58-8.99,7.59,0,3.18,0,6.36,0,9.54,0,.53-.09,1.07-.13,1.57-.43.06-.65.12-.86.12-4.46.01-8.91.01-13.37.02-5.5.02-7.66,1.87-7.66,6.58,0,49.7,0,99.41,0,149.11,0,4.92,1.99,6.62,7.75,6.62,46.75,0,93.49,0,140.24,0,5.77,0,7.77-1.7,7.78-6.61,0-3.98,0-7.96,0-12.17,5.16,0,9.98,0,14.8,0,4.96,0,7.35-2.06,7.37-6.34.02-3.55,0-7.11,0-10.66,0-.59.06-1.19.09-1.74.49-.07.7-.12.92-.12,4.31-.01,8.62-.01,12.93-.02,5.96-.01,8.1-1.81,8.1-6.83,0-20.21,0-40.41,0-60.62,0-29.44,0-58.87.01-88.31,0-1.79-.18-3.46-1.7-4.87ZM168.31,214.33H37.54V73.47h130.76v140.87ZM190.3,195.39h-9.53v-2.47c0-40.97,0-81.93,0-122.9,0-.81.02-1.62-.06-2.43-.26-2.59-2.44-4.53-5.44-4.81-1.01-.09-2.04-.09-3.06-.09-36.44,0-72.89,0-109.33,0h-3.26v-8.07h130.69v140.77ZM212.47,176.63h-9.53V51.65c0-.62.02-1.25,0-1.87-.12-3.74-2.64-5.9-7.02-5.92-7.45-.03-14.9,0-22.35,0-29.72,0-59.45,0-89.17,0h-2.69v-8.2h130.76v140.97Z" style="fill:#003820; stroke-width:0px;"/><path d="M54.68,97.86c.65.05,1.31.02,1.97.02,15.34,0,30.68,0,46.02,0s30.97,0,46.46,0c.66,0,1.32.03,1.97-.03,1.68-.16,2.69-.99,2.81-2.42.13-1.52-.78-2.5-2.54-2.81-.71-.12-1.45-.12-2.18-.12-30.9,0-61.8,0-92.69,0-.73,0-1.47,0-2.18.13-1.63.3-2.58,1.19-2.5,2.64.09,1.5,1.04,2.43,2.86,2.57Z" style="fill:#003820; stroke-width:0px;"/><path d="M53.84,125.47c.73.22,1.57.22,2.36.22,15.55.01,31.11,0,46.66,0s30.82,0,46.23,0c3.33,0,4.82-.81,4.84-2.63.03-1.92-1.44-2.75-4.94-2.75-30.74,0-61.49,0-92.23,0-.8,0-1.78-.16-2.36.16-.99.56-2.13,1.33-2.48,2.22-.48,1.23.45,2.31,1.92,2.76Z" style="fill:#003820; stroke-width:0px;"/><path d="M151.09,106.55c-.8-.07-1.6-.07-2.41-.07-30.53,0-61.07,0-91.6,0-.73,0-1.46,0-2.19.05-1.74.12-2.94.84-3.05,2.4-.12,1.65,1.07,2.52,2.82,2.85.7.13,1.45.08,2.18.08,15.27,0,30.53,0,45.8,0s30.97,0,46.46,0c.86,0,1.77-.03,2.59-.24,1.46-.39,2.36-1.27,2.22-2.65-.14-1.44-1.14-2.25-2.82-2.4Z" style="fill:#003820; stroke-width:0px;"/><path d="M149.1,175.96c-15.41,0-30.83,0-46.24,0s-30.54,0-45.8,0c-.66,0-1.32-.03-1.97.02-2.08.16-3.31,1.17-3.27,2.66.03,1.5,1.25,2.5,3.3,2.67.51.04,1.02.03,1.53.03,30.83,0,61.66,0,92.48,0,3.29,0,4.82-.87,4.81-2.71-.01-1.83-1.51-2.67-4.83-2.67Z" style="fill:#003820; stroke-width:0px;"/><path d="M150.41,162.06c-.44-.02-.88,0-1.31,0-30.82,0-61.64,0-92.47,0-.8,0-1.73-.16-2.37.13-.9.4-2.03,1.07-2.23,1.79-.23.81.17,2.06.85,2.66.62.55,1.97.7,3,.7,7.81.02,15.63.03,23.45.03s15.63,0,23.44,0c15.85,0,31.7,0,47.55,0,2.28,0,3.54-.9,3.61-2.49.08-1.67-1.25-2.73-3.52-2.81Z" style="fill:#003820; stroke-width:0px;"/><path d="M79.32,167.37c7.81,0,15.63,0,23.44,0,15.85,0,31.7,0,47.55,0-15.85,0-31.7,0-47.55,0-7.81,0-15.63,0-23.44,0Z" style="fill:#003820; stroke-width:0px;"/><path d="M150.86,134.32c-.73-.03-1.46-.02-2.19-.02-15.27,0-30.53,0-45.8,0-3.29,0-6.57,0-9.86,0-12.49,0-24.98,0-37.47,0-2.42,0-3.75.98-3.73,2.59.02,1.59,1.46,2.64,3.72,2.7.36.01.73,0,1.1,0,30.82,0,61.65,0,92.47,0,.73,0,1.5.08,2.18-.09,1.61-.38,2.78-1.21,2.62-2.79-.16-1.52-1.24-2.34-3.04-2.41Z" style="fill:#003820; stroke-width:0px;"/><path d="M149.29,148.21c-30.97,0-61.93,0-92.9,0-.73,0-1.49-.05-2.18.1-1.5.32-2.44,1.16-2.39,2.54.05,1.43,1.03,2.29,2.65,2.57.56.1,1.16.03,1.75.03,15.56,0,31.11,0,46.67,0s30.97,0,46.45,0c.58,0,1.18.05,1.75-.02,1.63-.21,2.71-.99,2.81-2.43.1-1.53-.9-2.46-2.64-2.74-.64-.1-1.31-.06-1.97-.06Z" style="fill:#003820; stroke-width:0px;"/><path d="M118.83,189.96c-.58-.05-1.17-.03-1.75-.03-20.07,0-40.15,0-60.22,0-.87,0-1.91-.15-2.58.18-.96.49-2.17,1.3-2.3,2.09-.13.81.73,1.91,1.52,2.58.49.42,1.64.38,2.49.38,5.18.01,10.37.01,15.55.02,5.18,0,10.37,0,15.55,0,5.18,0,10.37,0,15.55,0,5.33,0,10.66.02,15.99-.02,2.08-.01,3.33-1.01,3.38-2.52.05-1.56-1.06-2.52-3.17-2.69Z" style="fill:#003820; stroke-width:0px;"/></svg>