<?xml version="1.0" encoding="UTF-8"?><svg id="Layer_1" xmlns="http://www.w3.org/2000/svg" width="376" height="1366" viewBox="0 0 376 1366"><path d="M188.08,566.04c-64.53-.12-116.95,52.27-117.03,116.88-.08,64.48,52.34,117.19,116.9,117.04,64.8-.14,116.95-51.82,117-116.91.05-65.46-52.68-116.9-116.87-117.02ZM188.05,788.82c-58.34.06-105.74-47.3-105.81-105.74-.07-58.45,47.12-105.74,105.63-105.86,58.45-.12,106.03,47.37,105.99,105.8-.04,58.35-47.44,105.75-105.81,105.81Z" style="fill:#003820; stroke-width:0px;"/><line x1="122.72" y1="683.02" x2="247.39" y2="683.02" style="fill:#003820; stroke:#003820; stroke-linecap:round; stroke-miterlimit:10; stroke-width:15px;"/><polyline points="235.07 648.36 259.71 684.12 235.07 717.64" style="fill:none; stroke:#003820; stroke-linecap:round; stroke-miterlimit:10; stroke-width:15px;"/></svg>