<?xml version="1.0" encoding="UTF-8"?><svg id="Layer_1" xmlns="http://www.w3.org/2000/svg" width="250" height="250" viewBox="0 0 250 250"><path d="M126.33,29.09c-55.17-.1-100,44.69-100.07,99.93-.07,55.13,44.75,100.19,99.95,100.07,55.41-.12,100-44.3,100.05-99.95.04-55.97-45.05-99.94-99.93-100.05ZM126.3,219.56c-49.89.05-90.41-40.44-90.48-90.41-.06-49.97,40.29-90.41,90.32-90.51,49.98-.1,90.66,40.5,90.62,90.45-.03,49.89-40.57,90.41-90.47,90.47Z" style="fill:#003820; stroke-width:0px;"/><path d="M171.11,143.8c-2.44-1.12-5.01-.09-6.38,2.56-.35.68-.7,1.37-1.03,2.06-7.24,14.94-19.2,22.73-35.75,23.38-15.13.59-27.17-5.26-35.75-17.81-1.69-2.47-2.87-5.28-4.32-7.91-1.32-2.41-3.92-3.36-6.17-2.3-2.39,1.13-3.49,3.77-2.39,6.31,1.09,2.52,2.21,5.07,3.68,7.38,10.1,15.88,24.75,23.6,42.82,23.93,13.59-.12,25.21-3.89,34.94-12.75,5.64-5.13,9.97-11.17,12.82-18.25,1.14-2.84.13-5.41-2.47-6.61Z" style="fill:#003820; stroke-width:0px;"/><path d="M96.43,110.02c5.26.05,9.54-4.18,9.57-9.46.03-5.3-4.17-9.56-9.43-9.59-5.27-.03-9.55,4.2-9.58,9.46-.02,5.29,4.15,9.54,9.44,9.59Z" style="fill:#003820; stroke-width:0px;"/><path d="M155.96,110.02c5.27.05,9.56-4.17,9.59-9.44.03-5.28-4.17-9.57-9.43-9.61-5.29-.04-9.54,4.15-9.58,9.44-.05,5.29,4.14,9.56,9.42,9.61Z" style="fill:#003820; stroke-width:0px;"/></svg>